# xmcd CD database file
#
# Track frame offsets:
#	150
#	18867
#	37057
#	54647
#	75730
#	97522
#	121277
#	131975
#	155635
#	174742
#	188027
#	208222
#
# Disc length: 3256 seconds
#
# Revision: 1
# Processed by: cddbd v1.5PL3 Copyright (c) Steve Scherf et al.
# Submitted via: CDex 1.50
#
DISCID=a10cb60c
DTITLE=NEWEST MODEL - CROSS BREED PARK
DYEAR=1990
DGENRE=Rock and Roll
TTITLE0=ひかりの怪物
TTITLE1=みんな信者
TTITLE2=杓子定木
TTITLE3=世紀の曲芸
TTITLE4=車といふ名の密室
TTITLE5=漂えど沈まず
TTITLE6=偉大なる社会
TTITLE7=雑種天国
TTITLE8=遊園地は年中無休
TTITLE9=夜明けの彷徨
TTITLE10=乳母車と棺桶
TTITLE11=底なしの底
EXTD=YEAR: 1990
EXTT0=
EXTT1=
EXTT2=
EXTT3=
EXTT4=
EXTT5=
EXTT6=
EXTT7=
EXTT8=
EXTT9=
EXTT10=
EXTT11=
PLAYORDER=
